<mxfile host="Electron" modified="2024-02-08T17:55:57.035Z" agent="Mozilla/5.0 (Windows NT 10.0; Win64; x64) AppleWebKit/537.36 (KHTML, like Gecko) draw.io/22.1.18 Chrome/120.0.6099.199 Electron/28.1.2 Safari/537.36" etag="BnPxnMD3fUTBmDp5O0sI" version="22.1.18" type="device">
  <diagram id="BeOwzdFO-6K8ULPqssb0" name="Page-1">
    <mxGraphModel dx="789" dy="513" grid="0" gridSize="10" guides="1" tooltips="1" connect="1" arrows="1" fold="1" page="1" pageScale="1" pageWidth="1600" pageHeight="1200" math="0" shadow="0">
      <root>
        <mxCell id="0" />
        <mxCell id="1" parent="0" />
        <mxCell id="Sp0bksuZrKBO2L5NOEH8-1" value="" style="edgeStyle=orthogonalEdgeStyle;rounded=0;orthogonalLoop=1;jettySize=auto;html=1;" edge="1" parent="1" source="7Mo76fnS7V7BcpqFV8Qy-1" target="7Mo76fnS7V7BcpqFV8Qy-3">
          <mxGeometry relative="1" as="geometry" />
        </mxCell>
        <mxCell id="7Mo76fnS7V7BcpqFV8Qy-1" value="" style="ellipse;html=1;shape=startState;fillColor=#000000;strokeColor=#ff0000;" parent="1" vertex="1">
          <mxGeometry x="785" y="30" width="45" height="50" as="geometry" />
        </mxCell>
        <mxCell id="Sp0bksuZrKBO2L5NOEH8-2" value="" style="edgeStyle=orthogonalEdgeStyle;rounded=0;orthogonalLoop=1;jettySize=auto;html=1;" edge="1" parent="1" source="7Mo76fnS7V7BcpqFV8Qy-3" target="7Mo76fnS7V7BcpqFV8Qy-4">
          <mxGeometry relative="1" as="geometry" />
        </mxCell>
        <mxCell id="7Mo76fnS7V7BcpqFV8Qy-3" value="&lt;b&gt;&lt;font style=&quot;font-size: 14px&quot;&gt;System asks User for Feedback&amp;nbsp;&lt;/font&gt;&lt;/b&gt;" style="rounded=1;whiteSpace=wrap;html=1;arcSize=40;fillColor=#cce5ff;strokeColor=#36393d;" parent="1" vertex="1">
          <mxGeometry x="741.25" y="129" width="132.5" height="40" as="geometry" />
        </mxCell>
        <mxCell id="Sp0bksuZrKBO2L5NOEH8-3" value="" style="edgeStyle=orthogonalEdgeStyle;rounded=0;orthogonalLoop=1;jettySize=auto;html=1;" edge="1" parent="1" source="7Mo76fnS7V7BcpqFV8Qy-4" target="7Mo76fnS7V7BcpqFV8Qy-10">
          <mxGeometry relative="1" as="geometry" />
        </mxCell>
        <mxCell id="7Mo76fnS7V7BcpqFV8Qy-4" value="&lt;b&gt;Write Feedback&amp;nbsp;&lt;/b&gt;" style="rounded=1;whiteSpace=wrap;html=1;arcSize=40;fillColor=#cce5ff;strokeColor=#36393d;" parent="1" vertex="1">
          <mxGeometry x="747.5" y="222" width="120" height="40" as="geometry" />
        </mxCell>
        <mxCell id="7Mo76fnS7V7BcpqFV8Qy-10" value="&lt;b&gt;Include&lt;br&gt;&amp;nbsp;problems ?&lt;/b&gt;" style="rhombus;whiteSpace=wrap;html=1;fillColor=#ffff88;strokeColor=#36393d;" parent="1" vertex="1">
          <mxGeometry x="747.5" y="304" width="120" height="80" as="geometry" />
        </mxCell>
        <mxCell id="7Mo76fnS7V7BcpqFV8Qy-11" value="no" style="edgeStyle=orthogonalEdgeStyle;html=1;align=left;verticalAlign=bottom;endArrow=open;endSize=8;strokeColor=#000000;entryX=0.5;entryY=0;entryDx=0;entryDy=0;" parent="1" source="7Mo76fnS7V7BcpqFV8Qy-10" target="7Mo76fnS7V7BcpqFV8Qy-13" edge="1">
          <mxGeometry x="-0.5739" relative="1" as="geometry">
            <mxPoint x="927.5" y="380" as="targetPoint" />
            <mxPoint as="offset" />
          </mxGeometry>
        </mxCell>
        <mxCell id="7Mo76fnS7V7BcpqFV8Qy-12" value="yes" style="edgeStyle=orthogonalEdgeStyle;html=1;align=left;verticalAlign=top;endArrow=open;endSize=8;strokeColor=#000000;entryX=0.5;entryY=0;entryDx=0;entryDy=0;" parent="1" source="7Mo76fnS7V7BcpqFV8Qy-10" target="7Mo76fnS7V7BcpqFV8Qy-15" edge="1">
          <mxGeometry x="-1" relative="1" as="geometry">
            <mxPoint x="787.5" y="460" as="targetPoint" />
          </mxGeometry>
        </mxCell>
        <mxCell id="7Mo76fnS7V7BcpqFV8Qy-13" value="&lt;b&gt;Thanking Message&amp;nbsp;&lt;/b&gt;" style="rounded=1;whiteSpace=wrap;html=1;arcSize=40;fillColor=#cce5ff;strokeColor=#36393d;" parent="1" vertex="1">
          <mxGeometry x="900" y="440" width="120" height="40" as="geometry" />
        </mxCell>
        <mxCell id="7Mo76fnS7V7BcpqFV8Qy-14" value="" style="edgeStyle=orthogonalEdgeStyle;html=1;verticalAlign=bottom;endArrow=open;endSize=8;strokeColor=#000000;entryX=1;entryY=0.5;entryDx=0;entryDy=0;exitX=0.5;exitY=1;exitDx=0;exitDy=0;" parent="1" source="7Mo76fnS7V7BcpqFV8Qy-13" target="7Mo76fnS7V7BcpqFV8Qy-17" edge="1">
          <mxGeometry relative="1" as="geometry">
            <mxPoint x="960" y="540" as="targetPoint" />
          </mxGeometry>
        </mxCell>
        <mxCell id="7Mo76fnS7V7BcpqFV8Qy-15" value="&lt;b&gt;Admin resolves issues&amp;nbsp;&lt;/b&gt;" style="rounded=1;whiteSpace=wrap;html=1;arcSize=40;fillColor=#cce5ff;strokeColor=#36393d;" parent="1" vertex="1">
          <mxGeometry x="747.5" y="440" width="120" height="40" as="geometry" />
        </mxCell>
        <mxCell id="7Mo76fnS7V7BcpqFV8Qy-16" value="" style="edgeStyle=orthogonalEdgeStyle;html=1;verticalAlign=bottom;endArrow=open;endSize=8;strokeColor=#000000;entryX=0.5;entryY=0;entryDx=0;entryDy=0;" parent="1" source="7Mo76fnS7V7BcpqFV8Qy-15" target="7Mo76fnS7V7BcpqFV8Qy-17" edge="1">
          <mxGeometry relative="1" as="geometry">
            <mxPoint x="800" y="590" as="targetPoint" />
          </mxGeometry>
        </mxCell>
        <mxCell id="7Mo76fnS7V7BcpqFV8Qy-17" value="" style="ellipse;html=1;shape=endState;fillColor=#000000;strokeColor=#ff0000;" parent="1" vertex="1">
          <mxGeometry x="783.5" y="540" width="48" height="50" as="geometry" />
        </mxCell>
      </root>
    </mxGraphModel>
  </diagram>
</mxfile>
